<svg width="24" height="24" viewBox="0 0 24 24" fill="none" xmlns="http://www.w3.org/2000/svg">
<path d="M3.00114 11.8C2.97414 11.8 2.94617 11.799 2.91917 11.796C2.50717 11.751 2.20917 11.3799 2.25517 10.9689C2.61717 7.65094 4.61915 4.79497 7.61015 3.32697C7.84315 3.21297 8.11714 3.22695 8.33714 3.36395C8.55714 3.50095 8.69115 3.74192 8.69115 4.00092V7.05097C8.69115 7.46497 8.35515 7.80097 7.94115 7.80097C7.52715 7.80097 7.19115 7.46497 7.19115 7.05097V5.31C5.26715 6.648 4.00614 8.75 3.74614 11.133C3.70314 11.515 3.37914 11.8 3.00114 11.8Z" fill="white"/>
<path d="M16.0601 20.7501C15.9221 20.7501 15.7851 20.712 15.6641 20.637C15.4441 20.5 15.3101 20.2591 15.3101 20.0001V16.95C15.3101 16.536 15.6461 16.2 16.0601 16.2C16.4741 16.2 16.8101 16.536 16.8101 16.95V18.6911C18.7341 17.3531 19.9951 15.2511 20.2551 12.8681C20.3001 12.4561 20.6731 12.16 21.0811 12.204C21.4931 12.249 21.7911 12.6201 21.7451 13.0311C21.3831 16.3491 19.3811 19.205 16.3901 20.673C16.2851 20.725 16.1721 20.7501 16.0601 20.7501Z" fill="white"/>
<path opacity="0.4" d="M16 11C18.2091 11 20 9.20914 20 7C20 4.79086 18.2091 3 16 3C13.7909 3 12 4.79086 12 7C12 9.20914 13.7909 11 16 11Z" fill="white"/>
<path opacity="0.4" d="M13 16.5V19.5C13 20.5 12.5 21 11.5 21H5.5C4.5 21 4 20.5 4 19.5V16.5H13Z" fill="white"/>
<path d="M13 15.5V16.5H4V15.5C4 14.5 4.5 14 5.5 14H11.5C12.5 14 13 14.5 13 15.5Z" fill="white"/>
<path d="M7.5 19.5H6C5.724 19.5 5.5 19.276 5.5 19C5.5 18.724 5.724 18.5 6 18.5H7.5C7.776 18.5 8 18.724 8 19C8 19.276 7.776 19.5 7.5 19.5Z" fill="white"/>
</svg>
