<svg width="95" height="29" viewBox="0 0 95 29" fill="none" xmlns="http://www.w3.org/2000/svg">
<g clip-path="url(#clip0_66_51)">
<path d="M23.7781 15.7962C24.3241 15.8131 24.8701 15.7285 25.3882 15.5595C25.8896 15.3848 26.1403 15.1424 26.1403 14.8212C26.1403 14.3309 25.3046 14.0041 23.6277 13.8463C21.7836 13.6603 20.4577 13.1024 19.6554 12.1726C19.3546 11.8175 19.1317 11.4005 18.9924 10.9553C18.8922 10.589 18.842 10.2058 18.842 9.82822C18.8309 8.78566 19.2599 7.79382 20.0231 7.09503C20.9368 6.23844 22.1903 5.81578 23.7781 5.81578C25.377 5.75943 26.937 6.28916 28.1793 7.31481C28.4858 7.57404 28.6752 7.95161 28.6919 8.35737C28.742 8.75748 28.6139 9.16324 28.3465 9.46191C28.0902 9.77186 27.7169 9.96347 27.3158 9.98037C26.9203 10.0311 26.5191 9.90148 26.2239 9.63098C25.5275 9.0787 24.6583 8.80257 23.7781 8.84765C23.299 8.83074 22.8199 8.92655 22.3853 9.12942C22.0845 9.23086 21.8728 9.50136 21.8505 9.82258V9.90711L21.8727 10.0142C21.9173 10.1325 22.0009 10.234 22.1067 10.296C22.6583 10.6115 23.2767 10.7862 23.9118 10.7975L24.0399 10.8201L24.1904 10.8426L24.5135 10.8651C24.7865 10.9102 25.0428 10.9497 25.2879 10.9948C25.8784 11.1018 26.4578 11.2878 27.0038 11.5358C28.3298 12.0599 29.1933 13.3729 29.1487 14.8156C29.1654 15.8469 28.7253 16.8387 27.9454 17.5093C26.9871 18.3941 25.5999 18.8337 23.7837 18.8337C21.7948 18.8337 20.1847 18.3265 18.9534 17.3121C18.3239 16.7824 18.2292 15.8356 18.7417 15.1875C18.9924 14.8663 19.3657 14.6634 19.7724 14.624C20.168 14.5733 20.5691 14.7029 20.8644 14.9734C21.1596 15.2157 21.4939 15.4017 21.8505 15.5144C22.4744 15.7173 23.1263 15.8131 23.7781 15.7962Z" fill="white"/>
<path d="M42.1911 18.8393C41.5281 18.8787 40.932 18.4279 40.776 17.7742C39.7342 18.473 38.5086 18.8449 37.255 18.8393C33.7006 18.8393 30.8203 15.9201 30.8203 12.3247C30.8203 8.72931 33.7006 5.82142 37.255 5.81578C38.5086 5.81015 39.7342 6.18209 40.776 6.88088C40.932 6.22717 41.5281 5.77634 42.1911 5.81578C42.9989 5.79324 43.6731 6.44132 43.6953 7.26409C43.6953 7.28664 43.6953 7.31481 43.6953 7.33736V17.3177C43.7009 17.7178 43.5505 18.1011 43.2664 18.3828C42.9878 18.6759 42.5978 18.8449 42.1911 18.8393ZM37.255 15.8018C39.1548 15.8018 40.7036 14.252 40.7092 12.3304C40.7092 10.4087 39.1771 8.84202 37.2773 8.83638C35.3776 8.83638 33.8288 10.3861 33.8232 12.3078C33.8232 13.2377 34.1853 14.1224 34.8316 14.7818C35.4667 15.4468 36.3414 15.8131 37.255 15.8018Z" fill="white"/>
<path d="M46.2691 2.99242C46.258 2.5923 46.414 2.20909 46.6981 1.92732C47.2775 1.32996 48.2302 1.31869 48.8207 1.90478C48.8263 1.91041 48.8319 1.91605 48.843 1.92732C49.1271 2.20909 49.2831 2.5923 49.272 2.99242V17.3177C49.2776 17.7178 49.1271 18.101 48.843 18.3828C48.2636 18.9802 47.3109 18.9915 46.7204 18.4054C46.7148 18.3997 46.7092 18.3941 46.6981 18.3828C46.414 18.101 46.258 17.7178 46.2691 17.3177V2.99242Z" fill="white"/>
<path d="M62.5813 18.8393C61.9183 18.8787 61.3222 18.4279 61.1662 17.7742C60.1244 18.473 58.8987 18.8449 57.6452 18.8393C54.0908 18.8393 51.2104 15.9201 51.2104 12.3247C51.2104 8.72931 54.0908 5.82142 57.6452 5.81578C58.8987 5.81015 60.1244 6.18209 61.1662 6.88088C61.3222 6.22717 61.9183 5.77634 62.5813 5.81578C63.3891 5.79324 64.0632 6.44132 64.0855 7.26409C64.0855 7.28664 64.0855 7.31481 64.0855 7.33736V17.3177C64.091 17.7178 63.9406 18.1011 63.6565 18.3828C63.3779 18.6759 62.988 18.8449 62.5813 18.8393ZM57.6452 15.8018C59.545 15.8018 61.0937 14.252 61.0993 12.3304C61.0993 10.4087 59.5672 8.84202 57.6675 8.83638C55.7677 8.83638 54.2189 10.3861 54.2133 12.3078C54.2133 13.2377 54.5755 14.1224 55.2217 14.7818C55.8568 15.4468 56.7315 15.8131 57.6452 15.8018Z" fill="white"/>
<path d="M66.654 7.33171C66.6484 6.93159 66.7988 6.54838 67.0829 6.26661C67.3615 5.96793 67.7515 5.8045 68.1582 5.81014C68.8212 5.77069 69.4173 6.22153 69.5733 6.87524C70.6151 6.17644 71.8407 5.8045 73.0943 5.81014C73.501 5.81014 73.8854 5.97357 74.1695 6.26661C74.4536 6.54838 74.6096 6.93159 74.5985 7.33171C74.6208 8.14885 73.9801 8.83074 73.1667 8.85328C73.1444 8.85328 73.1165 8.85328 73.0943 8.85328C71.2001 8.85891 69.668 10.4087 69.6624 12.3247V17.3177C69.668 17.7178 69.5175 18.101 69.2334 18.3828C68.654 18.9802 67.7013 18.9914 67.1108 18.4054C67.1052 18.3997 67.0997 18.3941 67.0885 18.3828C66.8044 18.101 66.6484 17.7178 66.6595 17.3177V7.33171H66.654Z" fill="white"/>
<path d="M88.1366 5.96793C88.8776 6.34551 89.1729 7.25845 88.7996 8.00796L81.7186 22.3333C81.4846 22.8743 80.9498 23.2124 80.3648 23.1786C80.1364 23.1786 79.908 23.1279 79.7019 23.0264C78.9609 22.6488 78.6656 21.7359 79.0389 20.9864L80.844 17.3177L76.2533 8.00796C75.8856 7.25845 76.1809 6.34551 76.9163 5.96793C77.2728 5.78196 77.6907 5.74815 78.0751 5.8834C78.4539 6.01865 78.7603 6.30042 78.933 6.66673L82.5376 13.9195L86.1199 6.66673C86.2926 6.30042 86.6046 6.01865 86.9778 5.8834C87.3567 5.75378 87.7745 5.78196 88.1366 5.96793Z" fill="white"/>
<path d="M7.66042 18.8393C3.44302 18.8506 0.0111696 15.396 2.72321e-05 11.13C-0.0111152 6.85833 3.39846 3.39253 7.62142 3.37563C9.66048 3.37563 11.616 4.18713 13.0533 5.65235C16.0339 8.67858 16.0228 13.5701 13.031 16.5851C11.6048 18.0221 9.67162 18.8337 7.66042 18.8393ZM4.106 24.8241C3.87201 25.151 3.52102 25.3764 3.12547 25.444C2.71877 25.5229 2.30093 25.4271 1.96666 25.1792C1.63796 24.9368 1.41511 24.5705 1.35383 24.1648C1.2814 23.759 1.37611 23.3476 1.61567 23.0152C2.32321 22.0064 3.24803 21.1724 4.32327 20.5863C5.34837 20.0227 6.49604 19.7241 7.66599 19.7241C9.17021 19.7353 10.6521 20.1298 11.967 20.8737C12.5742 21.2174 13.1536 21.6007 13.7107 22.0233L14.5186 22.6432L15.3041 23.2857C16.0729 23.9619 16.8863 24.5705 17.7498 25.1172C18.5242 25.6131 19.4101 25.8892 20.3237 25.9118C21.1538 25.9343 21.9728 25.7371 22.7026 25.337C22.9088 25.2299 23.0982 25.0946 23.2709 24.9368C23.3266 24.8974 23.3768 24.8523 23.4213 24.8072L23.4659 24.7621L23.4882 24.7396C23.7333 24.4184 24.0954 24.2099 24.491 24.1648C25.31 24.069 26.0621 24.6438 26.1958 25.4666C26.2571 25.8667 26.1568 26.2724 25.9116 26.5937L25.8894 26.6387L25.8671 26.6613C25.8392 26.7007 25.8114 26.7402 25.7779 26.774C25.6888 26.8754 25.5941 26.9825 25.4938 27.0839C25.1707 27.3883 24.8197 27.6644 24.4464 27.9011C23.204 28.6562 21.7723 29.0394 20.3182 29.0056C18.9588 28.9887 17.6273 28.6168 16.4518 27.9236C15.8891 27.608 15.3487 27.253 14.8361 26.8642L14.0729 26.2668L13.3542 25.6694C12.5129 24.9425 11.616 24.2888 10.6689 23.7027C9.76076 23.1448 8.71894 22.8405 7.65485 22.8179C6.22862 22.8179 5.04196 23.4829 4.10043 24.8241H4.106ZM7.66599 6.46948C5.13667 6.46948 3.0809 8.54333 3.0809 11.1018C3.0809 13.6603 5.1311 15.7398 7.66042 15.7398C10.1897 15.7398 12.2455 13.6659 12.2455 11.1075C12.2455 9.87329 11.7608 8.68422 10.8917 7.81636C10.0449 6.93723 8.87494 6.44694 7.66042 6.46948H7.66599Z" fill="white"/>
<path d="M95.0002 2.58103C95.0002 3.30237 94.7439 3.91663 94.2369 4.41819C93.7244 4.91974 93.1116 5.17334 92.3873 5.17334C91.6631 5.17334 91.0391 4.92538 90.5321 4.42382C90.0251 3.92227 89.7744 3.31364 89.7744 2.5923C89.7744 1.87097 90.0307 1.2567 90.5377 0.75515C91.0446 0.253595 91.6686 0 92.3929 0C93.1171 0 93.7355 0.24796 94.2425 0.749514C94.7439 1.25107 94.9946 1.8597 94.9946 2.58103H95.0002ZM94.7049 2.5923C94.7049 1.93296 94.4821 1.38068 94.042 0.941119C93.6018 0.501555 93.0503 0.276137 92.3873 0.276137C91.7243 0.276137 91.1895 0.501555 90.7494 0.946755C90.3037 1.39759 90.0864 1.94423 90.0864 2.59794C90.0864 3.25165 90.3092 3.80393 90.7494 4.24349C91.1951 4.68305 91.741 4.90284 92.404 4.90284C93.067 4.90284 93.5907 4.67742 94.0364 4.23222C94.4821 3.78138 94.7049 3.24038 94.7049 2.59794V2.5923ZM93.8358 4.0068H93.223L92.1979 2.91353H91.9138V4.0068H91.4179V1.02565H92.3706C92.6937 1.02565 92.95 1.11018 93.1394 1.27925C93.3288 1.44831 93.4291 1.67373 93.4291 1.94986C93.4291 2.15838 93.3678 2.33871 93.2397 2.49087C93.1116 2.64302 92.9444 2.75573 92.7327 2.81772L93.8247 4.0068H93.8358ZM92.3205 1.44831H91.9193V2.4965H92.3093C92.5043 2.4965 92.6603 2.45142 92.7717 2.35562C92.8831 2.25981 92.9444 2.13583 92.9444 1.97241C92.9444 1.80898 92.8887 1.67936 92.7773 1.58356C92.6659 1.49339 92.5154 1.44831 92.3205 1.44831Z" fill="white"/>
<path d="M31.3044 23.2462H31.9563L30.3518 25.5455V27.4052H29.7891V25.5455L28.1846 23.2462H28.8587L30.0843 25.0439L31.3044 23.2462Z" fill="white"/>
<path d="M33.4495 27.4953C32.9982 27.4953 32.6305 27.3432 32.3408 27.0389C32.0511 26.7346 31.9062 26.3683 31.9062 25.9287C31.9062 25.4891 32.0567 25.1228 32.3519 24.8185C32.6528 24.5086 33.0205 24.3564 33.4606 24.3564C33.9007 24.3564 34.2852 24.5086 34.5749 24.8072C34.8646 25.1059 35.0094 25.4779 35.0094 25.9174C35.0094 26.357 34.859 26.7289 34.5637 27.0389C34.2684 27.3488 33.8952 27.501 33.4495 27.501V27.4953ZM34.469 25.9118C34.469 25.6018 34.3743 25.3482 34.1849 25.1397C33.9954 24.9369 33.7559 24.8298 33.4662 24.8298C33.1765 24.8298 32.9313 24.9369 32.7419 25.1397C32.5525 25.3482 32.4578 25.6075 32.4578 25.9231C32.4578 26.2386 32.5525 26.4922 32.7419 26.6951C32.9313 26.9036 33.1709 27.0051 33.455 27.0051C33.7392 27.0051 33.9899 26.898 34.1849 26.6895C34.3799 26.481 34.4746 26.2161 34.4746 25.9061L34.469 25.9118Z" fill="white"/>
<path d="M38.3187 27.4108H37.7838V26.8529C37.6167 27.0727 37.4495 27.2305 37.2824 27.3263C37.1153 27.4221 36.937 27.4728 36.7364 27.4728C36.4245 27.4728 36.1793 27.3657 35.9843 27.1572C35.7949 26.9487 35.7002 26.6669 35.7002 26.3119V24.4353H36.235V26.2555C36.235 26.4866 36.2907 26.6669 36.4077 26.7909C36.5247 26.9205 36.6807 26.9825 36.8869 26.9825C37.0373 26.9825 37.1766 26.9431 37.3158 26.8585C37.4496 26.7796 37.6055 26.6388 37.7838 26.4471V24.4297H38.3187V27.4052V27.4108Z" fill="white"/>
<path d="M40.9371 24.9594C40.7644 24.9594 40.5973 24.9988 40.4302 25.0834C40.263 25.1679 40.068 25.3088 39.8452 25.506V27.4108H39.3159V24.5086L39.8452 24.3902V25.1454C40.0903 24.841 40.2797 24.6382 40.419 24.5367C40.5583 24.4353 40.7087 24.3902 40.8703 24.3902C40.9037 24.3902 40.9371 24.3902 40.9594 24.3958C40.9817 24.4015 41.0151 24.4071 41.0541 24.4128L41.0931 24.9763C41.0931 24.9763 41.0374 24.965 41.0151 24.9594C40.9873 24.9594 40.965 24.9594 40.9371 24.9594Z" fill="white"/>
<path d="M44.9039 27.4841C44.3189 27.4841 43.8287 27.2812 43.4387 26.8754C43.0487 26.4697 42.8481 25.9569 42.8481 25.3313C42.8481 25.0383 42.9039 24.7622 43.0097 24.4973C43.1156 24.2324 43.2716 24.0014 43.4721 23.7985C43.6727 23.6013 43.9011 23.4491 44.1629 23.3364C44.4248 23.2237 44.6978 23.173 44.9819 23.173C45.2493 23.173 45.4945 23.218 45.7285 23.3026C45.9569 23.3871 46.1686 23.5167 46.358 23.6914V24.3846H46.3469C46.1184 24.1535 45.89 23.9845 45.6616 23.8718C45.4332 23.759 45.1936 23.7027 44.9541 23.7027C44.5362 23.7027 44.1797 23.8605 43.8788 24.1704C43.578 24.486 43.4275 24.8636 43.4275 25.3032C43.4275 25.7709 43.5724 26.1597 43.8677 26.4697C44.1629 26.7796 44.5139 26.9374 44.9318 26.9374C45.1936 26.9374 45.4499 26.8811 45.7006 26.7684C45.9513 26.6557 46.1909 26.4866 46.4193 26.2612H46.4304L46.3469 26.9374C46.1184 27.1178 45.8844 27.253 45.6449 27.3432C45.4053 27.4277 45.1546 27.4728 44.8928 27.4728L44.9039 27.4841Z" fill="white"/>
<path d="M49.6617 25.6018V27.3375L49.1324 27.4559V26.9262C48.9096 27.1065 48.7034 27.2361 48.514 27.3263C48.3246 27.4164 48.1296 27.4559 47.9458 27.4559C47.6895 27.4559 47.4778 27.3826 47.3162 27.2361C47.1547 27.0896 47.0767 26.898 47.0767 26.6557C47.0767 26.3175 47.2438 26.0639 47.5836 25.8949C47.9235 25.7314 48.4416 25.6469 49.138 25.6356V25.6244C49.138 25.3764 49.0823 25.1904 48.9653 25.0608C48.8483 24.9312 48.6812 24.8692 48.4639 24.8692C48.2968 24.8692 48.1296 24.903 47.9569 24.9763C47.7842 25.0496 47.6004 25.1566 47.4165 25.2975H47.4054L47.5168 24.6889C47.6728 24.5818 47.8399 24.5029 48.007 24.4522C48.1798 24.4015 48.358 24.3733 48.5475 24.3733C48.9096 24.3733 49.1881 24.4804 49.3776 24.6889C49.567 24.8974 49.6673 25.2017 49.6673 25.5906L49.6617 25.6018ZM47.6115 26.6388C47.6115 26.7515 47.6505 26.836 47.7285 26.9036C47.8065 26.9712 47.9123 26.9994 48.0516 26.9994C48.1909 26.9994 48.3469 26.9656 48.5196 26.898C48.6979 26.8304 48.8984 26.7233 49.1324 26.5824V25.985C48.6199 26.0189 48.241 26.0865 47.9903 26.1879C47.7396 26.295 47.6115 26.4415 47.6115 26.6331V26.6388Z" fill="white"/>
<path d="M51.7505 25.6751C52.1405 25.7653 52.4079 25.8836 52.5584 26.0189C52.7088 26.1541 52.7868 26.3457 52.7868 26.588C52.7868 26.8473 52.6754 27.0558 52.4525 27.2248C52.2297 27.3939 51.9455 27.4728 51.6001 27.4728C51.394 27.4728 51.1934 27.4446 51.004 27.3826C50.8146 27.3206 50.6307 27.2305 50.4469 27.1065L50.3354 26.4584H50.3466C50.5694 26.6275 50.7867 26.7627 51.0096 26.8529C51.2324 26.9431 51.4497 26.9882 51.6558 26.9882C51.8341 26.9882 51.979 26.9543 52.0959 26.8811C52.2129 26.8135 52.2687 26.7233 52.2687 26.6106C52.2687 26.4922 52.2129 26.3964 52.1071 26.3288C52.0012 26.2612 51.784 26.1879 51.472 26.1147C51.0931 26.0245 50.8257 25.9118 50.6753 25.7765C50.5249 25.6413 50.4524 25.4666 50.4524 25.2468C50.4524 24.9876 50.5583 24.7734 50.7756 24.6044C50.9873 24.4409 51.2658 24.3564 51.6001 24.3564C51.7672 24.3564 51.9288 24.3789 52.0959 24.4297C52.2631 24.4804 52.4191 24.5424 52.5639 24.6325V25.2017H52.5528C52.3689 25.0834 52.1907 24.9932 52.0235 24.9312C51.8508 24.8692 51.6948 24.841 51.5444 24.841C51.3661 24.841 51.2268 24.8749 51.1266 24.9368C51.0207 24.9988 50.9706 25.0834 50.9706 25.1848C50.9706 25.2975 51.0263 25.382 51.1321 25.4497C51.238 25.5173 51.4441 25.5849 51.7561 25.6582L51.7505 25.6751Z" fill="white"/>
<path d="M54.9933 24.858C54.8429 24.858 54.698 24.8974 54.5588 24.9819C54.4251 25.0608 54.2691 25.2017 54.0908 25.3933V27.4108H53.5615V23.0941L54.0908 22.8968V24.9988C54.2579 24.7791 54.4251 24.6213 54.5922 24.5255C54.7593 24.4297 54.9376 24.3789 55.1382 24.3789C55.4502 24.3789 55.6953 24.486 55.8903 24.6945C56.0797 24.903 56.1744 25.1848 56.1744 25.5398V27.4164H55.6451V25.5962C55.6451 25.3651 55.5894 25.1848 55.4724 25.0552C55.3554 24.9256 55.1939 24.8636 54.9933 24.8636V24.858Z" fill="white"/>
<path d="M59.3499 25.5286C58.9432 25.3482 58.6702 25.1623 58.5142 24.9763C58.3638 24.7903 58.2858 24.5649 58.2858 24.3001C58.2858 23.9619 58.4028 23.6858 58.6312 23.4773C58.8596 23.2744 59.166 23.1673 59.5393 23.1673C59.7399 23.1673 59.9293 23.1899 60.102 23.2406C60.2747 23.2913 60.4474 23.3702 60.6201 23.4829V24.1254H60.609C60.4196 23.9845 60.2357 23.8774 60.0519 23.8098C59.868 23.7421 59.6897 23.7027 59.5115 23.7027C59.3053 23.7027 59.1382 23.7534 59.0156 23.8492C58.893 23.945 58.8318 24.0803 58.8318 24.2437C58.8318 24.4071 58.8875 24.5367 59.0045 24.6438C59.1159 24.7509 59.3555 24.8861 59.7232 25.0552C60.1131 25.2355 60.3861 25.4215 60.5477 25.6075C60.7093 25.7934 60.7928 26.0245 60.7928 26.2894C60.7928 26.6444 60.6703 26.9262 60.4196 27.146C60.1744 27.3657 59.8513 27.4728 59.4557 27.4728C59.2329 27.4728 59.0268 27.439 58.8206 27.3657C58.6145 27.2925 58.4251 27.1967 58.2524 27.0614L58.1187 26.2894H58.1298C58.3471 26.4866 58.5755 26.6444 58.8151 26.7627C59.0546 26.8811 59.2775 26.9374 59.4892 26.9374C59.7176 26.9374 59.9014 26.8811 60.0351 26.774C60.1744 26.6669 60.2413 26.5204 60.2413 26.3344C60.2413 26.1823 60.18 26.047 60.063 25.9287C59.946 25.816 59.7064 25.6751 59.3555 25.5173L59.3499 25.5286Z" fill="white"/>
<path d="M62.9431 27.4953C62.4919 27.4953 62.1242 27.3432 61.8345 27.0389C61.5448 26.7346 61.3999 26.3683 61.3999 25.9287C61.3999 25.4891 61.5503 25.1228 61.8456 24.8185C62.1464 24.5086 62.5141 24.3564 62.9543 24.3564C63.3944 24.3564 63.7788 24.5086 64.0685 24.8072C64.3582 25.1059 64.5031 25.4779 64.5031 25.9174C64.5031 26.357 64.3526 26.7289 64.0574 27.0389C63.7621 27.3488 63.3888 27.501 62.9431 27.501V27.4953ZM63.9627 25.9118C63.9627 25.6018 63.8679 25.3482 63.6785 25.1397C63.4891 24.9369 63.2495 24.8298 62.9598 24.8298C62.6701 24.8298 62.425 24.9369 62.2356 25.1397C62.0462 25.3482 61.9514 25.6075 61.9514 25.9231C61.9514 26.2386 62.0462 26.4922 62.2356 26.6951C62.425 26.9036 62.6646 27.0051 62.9487 27.0051C63.2328 27.0051 63.4835 26.898 63.6785 26.6895C63.8735 26.481 63.9682 26.2161 63.9682 25.9061L63.9627 25.9118Z" fill="white"/>
<path d="M65.8125 27.4108H65.2832V23.0941L65.8125 22.8968V27.4108Z" fill="white"/>
<path d="M69.4002 27.4108H68.8654V26.8529C68.6982 27.0727 68.5311 27.2305 68.364 27.3263C68.1968 27.4221 68.0185 27.4728 67.818 27.4728C67.506 27.4728 67.2609 27.3657 67.0659 27.1572C66.8764 26.9487 66.7817 26.6669 66.7817 26.3119V24.4353H67.3166V26.2555C67.3166 26.4866 67.3723 26.6669 67.4893 26.7909C67.6063 26.9205 67.7623 26.9825 67.9684 26.9825C68.1188 26.9825 68.2581 26.9431 68.3974 26.8585C68.5311 26.7796 68.6871 26.6388 68.8654 26.4471V24.4297H69.4002V27.4052V27.4108Z" fill="white"/>
<path d="M72.286 26.6951L72.169 27.2643C72.0854 27.3263 71.9795 27.377 71.8626 27.4164C71.7456 27.4559 71.623 27.4728 71.5004 27.4728C71.2219 27.4728 71.0046 27.3883 70.843 27.2136C70.6815 27.0389 70.6035 26.7965 70.6035 26.481V24.8918H70.1021V24.4353H70.6035V23.7703L71.1271 23.5731V24.4353H72.2804V24.8918H71.1271V26.4584C71.1271 26.6388 71.1661 26.7684 71.2497 26.8585C71.3333 26.9487 71.4558 26.9938 71.6118 26.9938C71.7233 26.9938 71.8291 26.9712 71.9405 26.9205C72.052 26.8698 72.1634 26.7965 72.2748 26.6895H72.286V26.6951Z" fill="white"/>
<path d="M73.3167 23.0039C73.417 23.0039 73.5061 23.0377 73.573 23.111C73.6454 23.1842 73.6788 23.2688 73.6788 23.3702C73.6788 23.4716 73.6454 23.5618 73.573 23.6294C73.5006 23.7027 73.417 23.7365 73.3167 23.7365C73.2164 23.7365 73.1273 23.7027 73.0604 23.6294C72.988 23.5562 72.9546 23.4716 72.9546 23.3702C72.9546 23.2688 72.988 23.1786 73.0604 23.111C73.1329 23.0377 73.2164 23.0039 73.3167 23.0039ZM73.5786 27.4108H73.0493V24.4353H73.5786V27.4108Z" fill="white"/>
<path d="M75.9128 27.4953C75.4616 27.4953 75.0939 27.3432 74.8042 27.0389C74.5145 26.7346 74.3696 26.3683 74.3696 25.9287C74.3696 25.4891 74.52 25.1228 74.8153 24.8185C75.1162 24.5086 75.4839 24.3564 75.924 24.3564C76.3641 24.3564 76.7485 24.5086 77.0382 24.8072C77.3279 25.1059 77.4728 25.4779 77.4728 25.9174C77.4728 26.357 77.3224 26.7289 77.0271 27.0389C76.7318 27.3488 76.3585 27.501 75.9128 27.501V27.4953ZM76.9324 25.9118C76.9324 25.6018 76.8377 25.3482 76.6482 25.1397C76.4588 24.9369 76.2193 24.8298 75.9296 24.8298C75.6399 24.8298 75.3947 24.9369 75.2053 25.1397C75.0159 25.3482 74.9212 25.6075 74.9212 25.9231C74.9212 26.2386 75.0159 26.4922 75.2053 26.6951C75.3947 26.9036 75.6343 27.0051 75.9184 27.0051C76.2026 27.0051 76.4533 26.898 76.6482 26.6895C76.8432 26.481 76.9379 26.2161 76.9379 25.9061L76.9324 25.9118Z" fill="white"/>
<path d="M79.651 24.858C79.5006 24.858 79.3558 24.8974 79.2165 24.9819C79.0828 25.0608 78.9268 25.2017 78.7485 25.3933V27.4108H78.2192V24.5086L78.7485 24.3902V24.9988C78.9156 24.7791 79.0828 24.6213 79.2499 24.5255C79.417 24.4297 79.5953 24.3789 79.7959 24.3789C80.1079 24.3789 80.353 24.486 80.548 24.6945C80.7374 24.903 80.8321 25.1848 80.8321 25.5398V27.4164H80.3029V25.5962C80.3029 25.3651 80.2472 25.1848 80.1302 25.0552C80.0132 24.9256 79.8516 24.8636 79.651 24.8636V24.858Z" fill="white"/>
</g>
<defs>
<clipPath id="clip0_66_51">
<rect width="95" height="29" fill="white"/>
</clipPath>
</defs>
</svg>
