<svg width="24" height="24" viewBox="0 0 24 24" fill="none" xmlns="http://www.w3.org/2000/svg">
<path d="M17 10H19.5C20.33 10 21 10.67 21 11.5V19C21 19.55 20.7799 20.05 20.4099 20.41C20.0499 20.78 19.55 21 19 21C17.9 21 17 20.1 17 19V10Z" fill="white"/>
<path opacity="0.4" d="M6 21C4 21 3 20 3 18V6C3 4 4 3 6 3H14C16 3 17 4 17 6V19C17 20.104 17.896 21 19 21H6Z" fill="white"/>
<path d="M13.9998 8.75002H10.4998C10.0858 8.75002 9.74978 8.41402 9.74978 8.00002C9.74978 7.58602 10.0858 7.25002 10.4998 7.25002H13.9998C14.4138 7.25002 14.7498 7.58602 14.7498 8.00002C14.7498 8.41402 14.4138 8.75002 13.9998 8.75002ZM14.7498 12C14.7498 11.586 14.4138 11.25 13.9998 11.25H10.4998C10.0858 11.25 9.74978 11.586 9.74978 12C9.74978 12.414 10.0858 12.75 10.4998 12.75H13.9998C14.4138 12.75 14.7498 12.414 14.7498 12ZM14.7498 16C14.7498 15.586 14.4138 15.25 13.9998 15.25H10.4998C10.0858 15.25 9.74978 15.586 9.74978 16C9.74978 16.414 10.0858 16.75 10.4998 16.75H13.9998C14.4138 16.75 14.7498 16.414 14.7498 16ZM7.02981 9.03005L8.02981 8.03005C8.32281 7.73705 8.32281 7.26202 8.02981 6.96902C7.73681 6.67602 7.26177 6.67602 6.96877 6.96902L6.49783 7.44003C6.20383 7.17603 5.75077 7.18702 5.46877 7.46902C5.17577 7.76202 5.17577 8.23705 5.46877 8.53005L5.96877 9.03005C6.11477 9.17605 6.3068 9.25002 6.4988 9.25002C6.6908 9.25002 6.88381 9.17705 7.02981 9.03005ZM7.02981 13.0301L8.02981 12.0301C8.32281 11.7371 8.32281 11.262 8.02981 10.969C7.73681 10.676 7.26177 10.676 6.96877 10.969L6.49783 11.44C6.20383 11.176 5.75077 11.187 5.46877 11.469C5.17577 11.762 5.17577 12.2371 5.46877 12.5301L5.96877 13.0301C6.11477 13.1761 6.3068 13.25 6.4988 13.25C6.6908 13.25 6.88381 13.1771 7.02981 13.0301ZM7.02981 17.0301L8.02981 16.0301C8.32281 15.7371 8.32281 15.262 8.02981 14.969C7.73681 14.676 7.26177 14.676 6.96877 14.969L6.49783 15.44C6.20383 15.176 5.75077 15.187 5.46877 15.469C5.17577 15.762 5.17577 16.2371 5.46877 16.5301L5.96877 17.0301C6.11477 17.1761 6.3068 17.25 6.4988 17.25C6.6908 17.25 6.88381 17.1771 7.02981 17.0301Z" fill="white"/>
</svg>
