<svg width="24" height="24" viewBox="0 0 24 24" fill="none" xmlns="http://www.w3.org/2000/svg">
<path opacity="0.4" d="M20 11.34V18C20 20 19 21 17 21H14.33C14.164 21 14.03 20.866 14.03 20.7V17.622C14.03 16.625 13.3549 15.695 12.3719 15.529C11.1229 15.319 10.03 16.288 10.03 17.5V20.7C10.03 20.866 9.89598 21 9.72998 21H7C5 21 4 20 4 18V11.34C4.11 11.43 4.22999 11.52 4.35999 11.59C4.80999 11.85 5.34002 12 5.90002 12C7.23002 12 8.53995 11.17 8.94995 10C9.35995 11.17 10.67 12 12 12C13.33 12 14.64 11.17 15.05 10C15.46 11.17 16.77 12 18.1 12C18.66 12 19.19 11.85 19.64 11.59C19.77 11.52 19.89 11.43 20 11.34Z" fill="white"/>
<path d="M7.50522 3C5.00522 3 4.62218 3.81999 4.21018 5.03799L3.17026 8.11099C2.73226 9.40499 3.17523 10.902 4.36923 11.592C4.81823 11.852 5.34327 12 5.90427 12C7.23427 12 8.5432 11.17 8.9592 10C9.3652 11.17 10.6742 12 12.0042 12C13.3342 12 14.6432 11.17 15.0492 10C15.4652 11.17 16.7752 12 18.1042 12C18.6662 12 19.1903 11.852 19.6393 11.592C20.8333 10.902 21.2762 9.40499 20.8382 8.11099L19.7982 5.03799C19.3862 3.81999 19.0033 3 16.5033 3H7.50522Z" fill="white"/>
</svg>
