<svg width="24" height="24" viewBox="0 0 24 24" fill="none" xmlns="http://www.w3.org/2000/svg">
<path opacity="0.4" d="M13.785 13.389H10.2159C6.55094 13.389 5.25098 16.061 5.25098 18.349C5.25098 20.381 6.38196 21.499 8.43396 21.499H15.568C17.62 21.499 18.751 20.38 18.751 18.349C18.75 16.062 17.45 13.389 13.785 13.389Z" fill="white"/>
<path d="M12.0083 11.512C13.9503 11.512 15.5293 9.93898 15.5293 8.00598C15.5293 6.07198 13.9493 4.5 12.0083 4.5C10.0673 4.5 8.48828 6.07298 8.48828 8.00598C8.48828 9.93898 10.0663 11.512 12.0083 11.512Z" fill="white"/>
<path opacity="0.4" d="M22.4998 12.65C22.4998 14.21 21.6398 15.0699 20.0698 15.0699H19.6499C19.5199 15.0699 19.4198 15 19.3698 14.89C18.6398 13.57 17.4098 12.53 15.6398 12.11C15.4098 12.05 15.3098 11.77 15.4798 11.61C16.1698 10.96 16.6698 10.11 16.8898 9.16003C16.9198 9.03003 17.0399 8.93005 17.1799 8.93005H18.7899C21.5299 8.93005 22.4998 10.94 22.4998 12.65Z" fill="white"/>
<path d="M20.1802 5.17004C20.1802 6.65004 18.9802 7.84998 17.5102 7.84998C17.4362 7.84998 17.3632 7.84597 17.2922 7.83997C17.2002 7.83197 17.1322 7.80205 17.0862 7.75305C17.0402 7.70405 17.0142 7.65705 17.0082 7.58105C16.9012 6.23005 16.2482 5.03496 15.2692 4.20996C15.2082 4.15796 15.1781 4.12301 15.1631 4.05701C15.1491 3.99401 15.1471 3.92198 15.1841 3.85498C15.6421 3.04598 16.5122 2.49902 17.5102 2.49902C18.9802 2.50002 20.1802 3.70004 20.1802 5.17004Z" fill="white"/>
<path opacity="0.4" d="M1.5 12.65C1.5 14.21 2.36005 15.0699 3.93005 15.0699H4.34998C4.47998 15.0699 4.58 15 4.63 14.89C5.36 13.57 6.58999 12.53 8.35999 12.11C8.58999 12.05 8.69002 11.77 8.52002 11.61C7.83002 10.96 7.32999 10.11 7.10999 9.16003C7.07999 9.03003 6.95995 8.93005 6.81995 8.93005H5.20996C2.46996 8.93005 1.5 10.94 1.5 12.65Z" fill="white"/>
<path d="M3.81982 5.17004C3.81982 6.65004 5.01987 7.84998 6.48987 7.84998C6.56387 7.84998 6.63689 7.84597 6.70789 7.83997C6.79989 7.83197 6.86782 7.80205 6.91382 7.75305C6.95982 7.70405 6.98582 7.65705 6.99182 7.58105C7.09882 6.23005 7.75183 5.03496 8.73083 4.20996C8.79183 4.15796 8.82191 4.12301 8.83691 4.05701C8.85091 3.99401 8.85292 3.92198 8.81592 3.85498C8.35792 3.04598 7.48787 2.49902 6.48987 2.49902C5.01987 2.50002 3.81982 3.70004 3.81982 5.17004Z" fill="white"/>
</svg>
